<svg xmlns="http://www.w3.org/2000/svg" xmlns:xlink="http://www.w3.org/1999/xlink" width="188px" height="170px" viewBox="0 0 188 170" version="1.1">
    <title>无数据</title>
    <g id="DAPP-DEFI" stroke="none" stroke-width="1" fill="none" fill-rule="evenodd" opacity="0.748565674">
        <g id="挖矿产出记录" transform="translate(-281.000000, -1610.000000)" fill-rule="nonzero">
            <g id="无数据" transform="translate(281.000000, 1610.000000)">
                <path d="M187.765988,131.503045 L184.442692,125.747513 C186.362439,118.459166 187.382038,110.790817 187.382038,102.862017 C187.382038,52.7487572 146.764455,12.0971133 96.6931839,12.0971133 C92.9859388,12.0971133 89.4109431,12.3532942 85.7079641,12.7375656 L83.9162002,9.66766414 C82.8966011,7.87866732 80.7251538,7.36630546 78.9376559,8.38675949 C77.1458919,9.41148321 76.6339594,11.5890211 77.6578245,13.3780179 L104.995024,60.8056474 C104.867041,62.0865521 104.099142,63.2350966 102.947293,63.9993697 C100.908095,65.1521839 98.3526986,64.5117315 97.0771333,62.4622841 L70.3798498,15.9355576 L63.4772923,4.1725832 C61.1767848,0.19314604 56.0963378,-1.17867555 52.1081232,1.10268172 C48.1335699,3.40657699 46.7648966,8.49094065 49.04506,12.4813847 L70.3755837,49.5550349 C71.6704255,54.0290319 69.7793562,58.813341 65.7767228,61.1899188 C64.3689082,61.9584616 62.8373766,62.4665538 61.305845,62.4665538 L28.6104183,5.70539909 C26.8186543,2.51167684 22.735992,1.48695312 19.5406796,3.27594994 C16.3496332,5.06921645 15.3257681,9.15530228 17.113266,12.3532942 L50.836824,70.7753553 C51.4931924,72.9590843 50.5323057,75.3045453 48.5331274,76.3985267 C46.3648333,77.6649227 43.5883979,77.0538176 42.1510347,74.9938012 L22.8639752,41.6262351 C22.0793509,40.2398677 20.7700002,39.2281074 19.2313256,38.8192174 C17.6926511,38.4103274 16.0542825,38.6387558 14.6858524,39.4529669 C13.3006466,40.2382491 12.289734,41.5486978 11.8811866,43.0886627 C11.4726392,44.6286275 11.7008762,46.2683699 12.5144051,47.6379476 L18.2651143,57.479565 C10.215109,71.2469716 5.9811449,86.914721 6,102.866286 C6,121.780978 11.8787555,139.423305 21.7121269,154 L170.138443,154 L157.749675,132.651589 C156.469844,130.345961 157.237742,127.408419 159.537173,126.003694 C161.836603,124.722789 164.771683,125.491332 166.179498,127.792691 L169.626511,133.800134 C169.754494,134.056315 169.754494,134.184405 169.882477,134.440586 L178.056334,148.500649 C178.952216,150.037735 180.867697,150.550097 182.399228,149.653464 C183.935026,148.75683 184.446958,146.839743 183.551076,145.306927 L179.843831,138.915213 L164.771683,112.835994 C164.003784,111.55509 164.515717,109.766093 165.795548,108.99755 C167.07538,108.229007 168.858612,108.741369 169.626511,110.022274 L182.399228,132.139227 L182.399228,132.011137 L183.423093,133.804403 C184.063009,134.952948 185.594541,135.33295 186.61414,134.696767 C187.638005,134.056315 188.405904,132.647319 187.765988,131.498775 L187.765988,131.503045 Z" id="路径" fill="#F8EFDE"/>
                <path d="M46.4800575,91.3076179 C46.351563,90.6576392 46.2230684,89.8776647 46.351563,88.9676945 C46.4800575,87.0264247 46.4800575,85.7264673 46.4800575,85.2064843 C46.351563,83.9108601 45.7090903,82.6152358 44.681134,81.5752699 C43.2719772,80.1453167 41.7343259,79.4996711 40.0681801,79.6253337 C38.2692566,79.7553294 36.7316053,80.5353039 35.3224485,81.9652571 C33.6520195,83.6552018 32.8853354,85.4664758 33.01383,87.4120788 C33.01383,89.3620149 33.9132917,91.0476264 35.5794376,92.7332379 L37.3740779,90.9132975 C36.2176271,89.747669 35.5751544,88.5820405 35.4466599,87.4120788 C35.193954,86.1164545 35.703649,84.8208303 36.8600998,83.6508686 C37.8880561,82.6109026 38.9160124,82.0909196 39.9396855,82.2209154 C40.9676418,82.2209154 41.991315,82.6109026 42.8907768,83.6508686 C43.5332494,84.3008473 43.9144499,85.2108175 44.0429444,86.2464503 L44.0429444,87.9363949 C43.9144499,90.267652 44.0429444,91.9532634 44.4284281,92.9932294 C44.6854171,93.9031996 45.1993953,94.6831741 45.9703625,95.4588153 L46.4800575,95.9787983 L48.2746979,94.1588579 L47.7607197,93.6388749 C47.118247,92.8589005 46.7327634,92.0832592 46.4757744,91.3076179 L46.4800575,91.3076179 Z M51.7354841,96.4944481 C51.3674676,96.1002436 50.8618347,95.8670185 50.3263273,95.8444694 C49.7893172,95.865902 49.2819513,96.0992172 48.9128874,96.4944481 C48.5274038,96.8844353 48.2746979,97.2744226 48.2746979,97.9244013 C48.2746979,98.4443843 48.4031924,98.9643672 48.9171706,99.3500213 C49.4311487,99.7400085 49.6881378,100 50.3306105,100 C50.8403055,100 51.3542836,99.7400085 51.7354841,99.3500213 C52.1261508,98.9766456 52.3567717,98.4633521 52.3779568,97.9200681 C52.355668,97.3783044 52.1251363,96.8667641 51.7354841,96.4944481 L51.7354841,96.4944481 Z M138.811949,67.3060703 C138.55496,67.1760746 138.297971,67.1760746 138.040982,67.1760746 C137.788276,67.1760746 137.659781,67.4360661 137.402792,67.6960576 C137.145803,67.9560491 137.274298,68.2160405 137.274298,68.4716988 C137.402792,68.7316903 137.531287,68.9916818 137.788276,69.1216776 C138.045265,69.2516733 138.302254,69.2516733 138.559243,69.2516733 C138.816232,69.2516733 139.073221,68.9916818 139.201716,68.7316903 C139.33021,68.4716988 139.33021,68.2117074 139.33021,67.9517159 C139.201716,67.6917244 139.073221,67.4317329 138.816232,67.3017371 L138.811949,67.3060703 Z M145.866299,60.689287 C145.534379,59.8004448 144.897346,59.0621442 144.071659,58.6093551 C143.043702,57.9593763 142.020029,57.8293806 141.120567,58.2193678 C140.221106,58.4793593 139.454422,59.129338 138.940444,60.169304 L140.096894,60.8192827 C140.482378,60.169304 140.996356,59.649321 141.510334,59.3893295 C142.148524,59.129338 142.790996,59.129338 143.429186,59.649321 C144.071659,60.0393082 144.457142,60.4292955 144.585637,60.9492784 C144.714131,61.4692614 144.585637,61.9849112 144.328648,62.6348899 C144.071659,63.0248772 143.686175,63.2848687 143.300691,63.5448601 C143.172197,63.6748559 142.915208,63.6748559 142.529724,63.8048516 C141.377557,64.0605099 140.610872,64.3205014 140.096894,64.5804929 C139.711411,64.8404844 139.454422,65.2304716 139.068938,65.7504546 L138.940444,66.1404418 L140.096894,66.7860874 L140.225389,66.3961001 C140.457425,66.0311829 140.764147,65.7208767 141.124851,65.4861299 C141.38184,65.3561342 141.767323,65.2261384 142.277018,65.0961427 C143.17648,64.8361512 143.818953,64.7061555 144.075942,64.7061555 C144.714131,64.446164 145.22811,63.9305142 145.60931,63.2805355 C145.994794,62.3705652 146.123288,61.4649282 145.866299,60.689287 L145.866299,60.689287 Z" id="形状" fill="#FCB532"/>
                <path d="M75.056513,66.5490358 L76.7195725,72.7108515 C76.847829,73.2257664 77.2325985,73.4832239 77.7456246,73.4832239 L110.258651,73.4832239 C110.771677,73.4832239 111.156446,73.0970377 111.284703,72.7108515 L112.943487,66.5447449 C113.2,65.6436437 113.969539,65 114.995591,65 L121.776086,65 C124.084703,65 126,66.9309311 126,69.2437574 L126,143.760534 C126,146.07336 124.080428,148 121.776086,148 L66.2239145,148 C63.8998175,147.979036 62.0208868,146.093188 62,143.760534 L62,69.2437574 C62,66.9266401 63.9195725,65.004291 66.2239145,65.004291 L73.008684,65.004291 C73.9064796,65.004291 74.8,65.6479347 75.056513,66.5490358 Z" id="路径" fill="#F9E7C6"/>
                <path d="M121.155861,148 L65.8441388,148 C64.5597849,148.001129 63.3276481,147.489313 62.4190733,146.57726 C61.5104985,145.665207 61,144.427715 61,143.137309 L61,68.8669616 C61,66.1768748 63.1666667,64 65.8441388,64 L72.5995416,64 C73.748854,64 74.7662083,64.7698182 75.1493124,65.9245455 L76.8051735,72.0659839 C76.8051735,72.3225899 77.0605763,72.450893 77.315979,72.450893 L109.688278,72.450893 C109.94368,72.450893 110.199083,72.3225899 110.199083,72.0659839 L111.854944,65.9202687 C112.110347,64.7655414 113.255403,64 114.400458,64 L121.155861,64 C123.833333,64 126,66.1811515 126,68.8669616 L126,143.137309 C125.872299,145.82312 123.705632,148 121.155861,148 Z M65.8441388,65.1547273 C63.8009168,65.1547273 62.1493124,66.8183899 62.1493124,68.8669616 L62.1493124,143.137309 C62.1493124,145.185881 63.8051735,146.849544 65.8441388,146.849544 L121.02816,146.849544 C123.071382,146.849544 124.727243,145.181604 124.727243,143.137309 L124.727243,68.8669616 C124.727243,66.8141131 123.067125,65.1547273 121.02816,65.1547273 L114.272757,65.1547273 C113.63425,65.1547273 113,65.6679394 112.744597,66.3051778 L111.084479,72.450893 C110.961035,73.0924081 110.322528,73.6056203 109.560576,73.6056203 L77.315979,73.6056203 C76.5497708,73.6056203 75.9112639,73.0924081 75.7835625,72.450893 L74.1277014,66.3051778 C74,65.6636626 73.3614931,65.1504505 72.5952849,65.1504505 L65.8441388,65.1504505 L65.8441388,65.1547273 Z" id="形状" fill="#FCB532"/>
                <path d="M81.2101827,61 L104.872361,61 C106.624341,61 108,62.3279677 108,64.0100602 L108,64.6136819 L107.12192,68.5895369 C106.871039,70.0382289 105.49538,71 103.99428,71 L81.9586418,71 C80.4581122,71.0008025 79.1581415,69.9989187 78.8310028,68.5895369 L78.0783624,64.6136819 C77.8869665,63.8267126 78.0498387,62.9985498 78.5268315,62.3333328 C79.0038243,61.6681159 79.7505642,61.2277284 80.5829824,61.1207243 C80.7084225,61 80.9593026,61 81.2101827,61 L81.2101827,61 Z" id="路径" fill="#FCB532"/>
                <path d="M69,85.9979767 C69,88.1831057 70.8218623,90 73,90 C75.1862348,90 77,88.1790592 77,86.0020233 C76.9824157,83.8006625 75.2024559,82.0198023 73,82 C71.6680162,82 70.5789474,82.6069803 69.7287449,83.5781487" id="路径" fill="#FAD694"/>
                <path d="M73.4398968,90 C72.2620817,90.0031833 71.1315265,89.5369892 70.2983064,88.7045219 C69.4650863,87.8720547 68.9978711,86.7419221 69,85.5641057 C69,85.3236787 69.2404345,85.0832517 69.4808618,85.0832517 C69.721289,85.0832517 69.9617162,85.3236787 69.9617162,85.5641057 C69.9617172,86.9728822 70.8105592,88.2428657 72.1122556,88.781606 C73.413952,89.3203463 74.9120169,89.0216903 75.9075997,88.0249615 C76.9031824,87.0282328 77.2001137,85.5298265 76.6598744,84.2287526 C76.1196351,82.9276786 74.8486738,82.0803003 73.4398968,82.0819215 C72.3579743,82.0819215 71.2800589,82.5627754 70.6829979,83.4042699 C70.5627843,83.6446969 70.2021435,83.6446969 69.9617162,83.5244834 C69.721289,83.4042699 69.721289,83.0436294 69.8415026,82.8032024 C70.6829979,81.721281 72.0013406,81 73.4398968,81 C75.9643828,81 78,83.0436294 78,85.4438922 C77.8797864,87.9603613 75.840162,90 73.4398968,90 L73.4398968,90 Z" id="路径" fill="#FCB532"/>
                <path d="M76.0012134,98.5404492 C74.0593661,97.4460395 71.6310436,98.0540449 70.5405281,99.9996622 C69.4459587,101.941226 70.0540528,104.365141 71.999954,105.459551 C73.9377473,106.55396 76.3660698,105.945955 77.4565853,104.000338 C78.0646794,102.909981 78.1862982,101.576423 77.6998229,100.360412" id="路径" fill="#FAD694"/>
                <path d="M73.5356666,106.995984 C72.8145179,106.995984 71.9731777,106.755028 71.2560354,106.393595 C69.0965957,105.192832 68.3794534,102.425858 69.5773615,100.265288 C70.779276,98.096687 73.5356666,97.3778358 75.6951063,98.5785984 C75.9354892,98.6990762 76.0556807,99.0605098 75.9354892,99.3014655 C75.8152978,99.5424212 75.4547234,99.662899 75.2143405,99.5424212 C73.5240921,98.5880893 71.3822986,99.1799657 70.4187017,100.867678 C69.4571701,102.546336 70.0581273,104.710921 71.7368012,105.674744 C73.4194815,106.638566 75.5749149,106.036177 76.5364465,104.349487 C77.1374037,103.38968 77.1374037,102.309396 76.7768294,101.225095 C76.6566379,100.984139 76.7768294,100.622706 77.0172122,100.622706 C77.2575951,100.502228 77.6181695,100.622706 77.6181695,100.863662 C78.2151204,102.188918 78.0949289,103.630636 77.3777866,104.831399 C76.6566379,106.156655 75.0941491,107 73.5356666,107 L73.5356666,106.995984 Z" id="路径" fill="#FCB532"/>
                <path d="M76.0012134,114.540571 C74.0593661,113.445915 71.6310436,114.054057 70.5405281,116.000113 C69.4459587,117.93806 70.0540528,120.366575 71.999954,121.461231 C73.9377473,122.551833 76.3660698,121.947745 77.4565853,120.001689 C78.0646794,118.907033 78.1862982,117.573174 77.6998229,116.360944" id="路径" fill="#FAD694"/>
                <path d="M73.7702325,123 C73.011789,123 72.1269382,122.746083 71.3727083,122.365206 C69.1015913,121.095619 68.3473613,118.184033 69.6072203,115.903008 C70.2392565,114.76038 71.2505146,114.002859 72.5103736,113.621983 C73.7744461,113.241107 75.0343051,113.495025 76.0413495,114.129818 C76.2941641,114.256777 76.4205713,114.637653 76.2941641,114.89157 C76.1677568,115.145488 75.788535,115.272447 75.5357205,115.145488 C74.6996016,114.650793 73.7008616,114.513591 72.7631881,114.764612 C71.75193,115.018529 70.9934865,115.653323 70.4878575,116.537802 C69.480813,118.315224 70.1086357,120.592016 71.8783373,121.607686 C73.6480389,122.623356 75.9149423,121.988562 76.9262003,120.21114 C77.5582366,119.195471 77.5582366,118.057074 77.1790148,116.918678 C77.0526076,116.66476 77.1790148,116.283884 77.4318294,116.283884 C77.6846439,116.156926 78.0638656,116.283884 78.0638656,116.537802 C78.6916883,117.934347 78.5652811,119.45362 77.8110511,120.718975 C77.0526076,122.115521 75.4093133,123 73.7702325,123 L73.7702325,123 Z M110.735927,103.236761 L92.6933986,103.236761 C91.9349551,103.236761 91.429326,102.728926 91.429326,101.967174 C91.429326,101.205421 91.9349551,100.697587 92.6933986,100.697587 L110.60952,100.697587 C111.367964,100.697587 111.873593,101.205421 111.873593,101.967174 C111.873593,102.728926 111.367964,103.236761 110.735927,103.236761 Z M88.9096081,103.236761 L83.8617451,103.236761 C83.1033015,103.236761 82.6018861,102.728926 82.6018861,101.967174 C82.6018861,101.205421 83.1075151,100.697587 83.8659586,100.697587 L88.9096081,100.697587 C89.6680516,100.697587 90.1736806,101.205421 90.1736806,101.967174 C90.1736806,102.728926 89.6680516,103.236761 88.9096081,103.236761 Z M98.1204834,120.084182 L83.8575315,120.084182 C83.0990879,120.084182 82.5976725,119.576347 82.5976725,118.814595 C82.5976725,118.057074 83.1033015,117.553471 83.8617451,117.553471 L97.9898626,117.553471 C98.7483061,117.553471 99.2539351,118.061306 99.2539351,118.818826 C99.2539351,119.580579 98.7483061,120.088414 98.1162698,120.088414 L98.1204834,120.084182 Z M110.735927,88.5349422 L106.699322,88.5349422 C105.940879,88.5349422 105.43525,88.0271074 105.43525,87.2653551 C105.43525,86.5036029 105.940879,86 106.699322,86 L110.735927,86 C111.494371,86 112,86.5078348 112,87.2695871 C111.997678,87.9691074 111.432413,88.5349422 110.735927,88.5349422 L110.735927,88.5349422 Z M102.789125,88.5349422 L83.8575315,88.5349422 C83.0990879,88.5349422 82.5976725,88.0271074 82.5976725,87.2653551 C82.5976725,86.5036029 83.1033015,86 83.8617451,86 L102.780698,86 C103.539141,86 104.04477,86.5078348 104.04477,87.2695871 C104.04477,88.0313394 103.539141,88.5349422 102.780698,88.5349422 L102.789125,88.5349422 Z" id="形状" fill="#FCB532"/>
                <path d="M103,122.5 C103,132.717268 111.282732,141 121.5,141 C131.717268,141 140,132.717268 140,122.5 C140,112.282732 131.717268,104 121.5,104 C111.282732,104 103,112.282732 103,122.5 L103,122.5 Z" id="路径" fill="#FAD694"/>
                <path d="M120.995775,141.999977 C115.956074,142.005575 111.121169,140.006051 107.557559,136.442443 C103.993949,132.878834 101.994425,128.043931 102.000023,123.004231 C101.992175,117.963065 103.990707,113.125985 107.55456,109.560545 C111.118414,105.995105 115.954605,103.99442 120.995775,104.000023 C126.037676,103.992172 130.875401,105.991284 134.440965,109.556052 C138.006528,113.120821 140.006717,117.958099 139.999983,123 C140.006717,128.041901 138.006528,132.879179 134.440965,136.443948 C130.875401,140.008716 126.037676,142.007828 120.995775,141.999977 L120.995775,141.999977 Z M120.995775,105.265018 C111.214238,105.295225 103.292892,113.218459 103.265018,123 C103.292892,132.781541 111.214238,140.704775 120.995775,140.734982 C130.778965,140.707097 138.702878,132.783186 138.730764,123 C138.702878,113.216814 130.778965,105.292903 120.995775,105.265018 Z" id="形状" fill="#FCB532"/>
                <path d="M115,111 C112.161049,112.244266 109.840499,114.58131 108.479199,117.567149 M107.410889,120.92011 C107.139702,121.860193 107,122.930096 107,124" id="形状" fill="#CAF3F9"/>
                <path d="M107.605857,123 C107.242343,123 107,122.738745 107,122.346863 C107,121.301843 107.121171,120.261177 107.363514,119.220512 C107.484685,118.828629 107.727028,118.698002 108.090542,118.698002 C108.454056,118.828629 108.575227,119.089884 108.575227,119.481767 C108.332885,120.396159 108.332885,121.436825 108.332885,122.346863 C108.211713,122.738745 107.969371,123 107.605857,123 L107.605857,123 Z M109.059912,116.742944 C108.938741,116.742944 108.81757,116.742944 108.81757,116.612316 C108.454056,116.481689 108.332885,116.089806 108.454056,115.697924 C109.907807,112.732399 112.253597,110.387797 115.106361,109.048985 C115.469875,108.918358 115.712218,109.048985 115.954561,109.440868 C116.075732,109.83275 115.954561,110.094005 115.591047,110.35526 C112.929317,111.530907 110.752272,113.612239 109.544598,116.351061 C109.423426,116.612316 109.302255,116.742944 109.059912,116.742944 L109.059912,116.742944 Z" id="形状" fill="#FCB532"/>
                <path d="M130.066381,133.100076 C131.536065,131.633308 133.785497,131.633308 135.251099,133.100076 L143.897737,141.72549 C145.367421,143.192259 145.367421,145.433155 143.897737,146.899924 C142.428054,148.366692 140.182704,148.366692 138.71302,146.899924 L130.070464,138.278584 C128.643179,136.847873 128.643179,134.534862 130.070464,133.104151 L130.066381,133.100076 Z" id="路径" fill="#F9E7C6"/>
                <path d="M141.309453,148 C140.348768,147.993898 139.426028,147.622625 138.726885,146.96088 L130.099316,138.300179 C129.396843,137.620089 129,136.682305 129,135.702378 C129,134.72245 129.396843,133.784667 130.099316,133.104577 C131.565758,131.631808 133.81023,131.631808 135.272599,133.104577 L143.900168,141.761186 C145.366611,143.233956 145.366611,145.484019 143.900168,146.956789 C143.200627,147.620986 142.276178,147.993823 141.313527,148 L141.309453,148 Z M130.962888,133.967783 C130.012561,134.925651 130.012561,136.475014 130.962888,137.432882 L139.586384,146.093582 C140.540136,147.048009 142.082844,147.048009 143.036597,146.093582 C143.986923,145.135715 143.986923,143.586351 143.036597,142.628484 L134.413101,133.967783 C133.459348,133.013357 131.91664,133.013357 130.962888,133.967783 L130.962888,133.967783 Z" id="形状" fill="#FCB532"/>
                <path d="M137.610653,142.085133 C137.431644,142.085133 137.248374,142.085133 137.069365,141.905561 L135.897286,140.729793 C135.624511,140.460436 135.624511,140.097017 135.897286,139.823383 C136.165798,139.554026 136.528078,139.554026 136.800852,139.823383 L137.972932,140.999151 C138.241445,141.272784 138.241445,141.636204 137.972932,141.905561 C137.883428,141.995347 137.789661,142.085133 137.610653,142.085133 L137.610653,142.085133 Z M134.63144,139.100821 C134.452431,139.100821 134.273423,139.100821 134.090152,138.921249 L132.287281,137.108428 C132.018768,136.834795 132.018768,136.475652 132.287281,136.202018 C132.560056,135.932661 132.918073,135.932661 133.190848,136.202018 L134.993719,138.014839 C135.266494,138.284196 135.266494,138.647615 134.993719,138.921249 C134.908477,139.006759 134.814711,139.100821 134.63144,139.100821 L134.63144,139.100821 Z M111.658682,154.638058 L65.0781137,154.638058 C64.3109344,154.638058 63.7994816,154.124996 63.7994816,153.355403 C63.7994816,152.585809 64.3109344,152.072747 65.0781137,152.072747 L111.658682,152.072747 C112.425862,152.072747 112.933053,152.585809 112.933053,153.355403 C112.933053,154.124996 112.4216,154.638058 111.65442,154.638058 L111.658682,154.638058 Z M59.9721094,154.638058 L54.8703671,154.638058 C54.1031879,154.638058 53.591735,154.124996 53.591735,153.355403 C53.591735,152.585809 54.1031879,152.072747 54.8703671,152.072747 L59.9721094,152.072747 C60.7392887,152.072747 61.2507415,152.585809 61.2507415,153.355403 C61.2507415,154.124996 60.7392887,154.638058 59.9721094,154.638058 Z M51.0387328,154.638058 L1.27437003,154.638058 C0.507190748,154.638058 0,154.124996 0,153.355403 C0,152.585809 0.511452855,152.072747 1.27863214,152.072747 L51.0429949,152.072747 C51.8101742,152.072747 52.3216271,152.585809 52.3216271,153.355403 C52.3216271,154.124996 51.8101742,154.638058 51.0429949,154.638058 L51.0387328,154.638058 Z M169.721368,159.755855 L164.615364,159.755855 C163.848184,159.755855 163.336731,159.242793 163.336731,158.473199 C163.336731,157.707881 163.848184,157.194819 164.615364,157.194819 L169.721368,157.194819 C170.488547,157.194819 171,157.707881 171,158.477475 C171,159.247068 170.488547,159.760131 169.721368,159.760131 L169.721368,159.755855 Z M162.062361,159.755855 L142.9255,159.755855 C142.158321,159.755855 141.646868,159.242793 141.646868,158.473199 C141.646868,157.707881 142.158321,157.194819 142.9255,157.194819 L162.062361,157.194819 C162.829541,157.194819 163.340993,157.707881 163.340993,158.477475 C163.340993,159.247068 162.829541,159.760131 162.062361,159.760131 L162.062361,159.755855 Z M139.089604,159.755855 L133.987862,159.755855 C133.220682,159.755855 132.70923,159.242793 132.70923,158.473199 C132.70923,157.707881 133.220682,157.194819 133.987862,157.194819 L139.093866,157.194819 C139.861045,157.194819 140.372498,157.707881 140.372498,158.477475 C140.372498,159.247068 139.861045,159.760131 139.093866,159.760131 L139.089604,159.755855 Z M131.43486,159.755855 L112.297999,159.755855 C111.530819,159.755855 111.019366,159.242793 111.019366,158.473199 C111.019366,157.707881 111.530819,157.194819 112.297999,157.194819 L131.43486,157.194819 C132.202039,157.194819 132.713492,157.707881 132.713492,158.477475 C132.713492,159.247068 132.202039,159.760131 131.43486,159.760131 L131.43486,159.755855 Z M108.466364,159.755855 L103.36036,159.755855 C102.593181,159.755855 102.08599,159.242793 102.08599,158.473199 C102.08599,157.707881 102.597443,157.194819 103.364622,157.194819 L108.466364,157.194819 C109.233544,157.194819 109.744996,157.707881 109.744996,158.477475 C109.744996,159.247068 109.233544,159.760131 108.466364,159.760131 L108.466364,159.755855 Z M124.419431,169.995724 L121.862167,169.995724 C121.09925,169.995724 120.587797,169.482662 120.587797,168.717344 C120.587797,167.947751 121.09925,167.434688 121.866429,167.434688 L124.419431,167.434688 C125.186611,167.434688 125.698063,167.947751 125.698063,168.717344 C125.698063,169.486938 125.186611,170 124.419431,170 L124.419431,169.995724 Z M119.313427,169.995724 L100.172304,169.995724 C99.4051245,169.995724 98.8936716,169.482662 98.8936716,168.717344 C98.8936716,167.947751 99.4051245,167.434688 100.172304,167.434688 L119.313427,167.434688 C120.080606,167.434688 120.592059,167.947751 120.592059,168.717344 C120.592059,169.486938 120.080606,170 119.313427,170 L119.313427,169.995724 Z M96.3406695,169.995724 L91.2389272,169.995724 C90.471748,169.995724 89.9602951,169.482662 89.9602951,168.717344 C89.9602951,167.947751 90.471748,167.434688 91.2389272,167.434688 L96.3449316,167.434688 C97.1121109,167.434688 97.6193016,167.947751 97.6193016,168.717344 C97.6193016,169.486938 97.1078488,170 96.3406695,170 L96.3406695,169.995724 Z" id="形状" fill="#FCB532"/>
            </g>
        </g>
    </g>
</svg>